<svg xmlns="http://www.w3.org/2000/svg" width="700" height="380" version="1.0">
    <defs>
        <linearGradient id="i">
            <stop offset="0" stop-color="#0d8202"/>
            <stop offset="1" stop-color="#73ce40"/>
        </linearGradient>
        <linearGradient id="g">
            <stop offset="0" stop-color="#c02020"/>
            <stop offset="1" stop-color="#8b0f0f"/>
        </linearGradient>
        <linearGradient id="k">
            <stop offset="0" stop-color="#6a6b14"/>
            <stop offset="1" stop-color="#d0c652"/>
        </linearGradient>
        <linearGradient id="f">
            <stop offset="0" stop-color="#139d0b"/>
            <stop offset="1" stop-color="#70d14f"/>
        </linearGradient>
        <linearGradient id="e">
            <stop offset="0" stop-color="#236b14"/>
            <stop offset="1" stop-color="#62cd5b"/>
        </linearGradient>
        <linearGradient id="h">
            <stop offset="0" stop-color="#6b141f"/>
            <stop offset="1" stop-color="#bd162b"/>
        </linearGradient>
        <linearGradient id="j">
            <stop offset="0" stop-color="#6b141f"/>
            <stop offset="1" stop-color="#c1162c"/>
        </linearGradient>
        <linearGradient id="d">
            <stop offset="0" stop-color="#11931a"/>
            <stop offset="1" stop-color="#1cca33"/>
        </linearGradient>
        <linearGradient id="b">
            <stop offset="0" stop-color="#8a0a0a"/>
            <stop offset="1" stop-color="#dc3c3c"/>
        </linearGradient>
        <linearGradient id="c">
            <stop offset="0" stop-color="#8f8f09"/>
            <stop offset="1" stop-color="#bfbf1c"/>
        </linearGradient>
        <linearGradient id="a">
            <stop offset="0" stop-color="#dedbdb"/>
            <stop offset="1" stop-color="#cfd0d1"/>
        </linearGradient>
    </defs>
    <path d="M150.35 65.707c13.485 7.517 27.022 13.488 42.303 9.761 36.872 2.91 74.37 3.49 111.285 0 16.474-.894 32.968-.628 49.46-1.301 33.024-3.224 65.573 3.035 97.62 10.413 103.406 30.934 108.778 87.2 161.396 167.904 4.15 6.233 9.218 12.099 14.969 16.921 12.354 12.926 38.767 10.917 39.047 27.984 0 3.662-3.566 5.206-7.158 5.206-3.814 0-7.932-1.037-11.064-2.603-8.27-5.4-17.927-7.768-26.682-12.365-11.451-8.66-22.684-18.281-29.286-31.238-25.069-37.966-46.687-109.8-93.064-119.746-7.449 32.538.016 68.872 15.62 98.27 2.801 6.108 7.647 8.436 13.015 11.714 4.984 5.028 4.07 12.473 5.207 18.873 6.362 20.058 13.14 39.97 9.762 61.175-6.964 24.744-46.082 7.955-25.381-5.207 9.243 2.696 7.326-13.955 6.507-20.174-2.026-22.25-14.914-28.584-34.492-35.794-13.789-6.728-30.03-10.183-39.698-22.778-11.744-.598-3.75 31.733-1.302 41 1.565 13.549-6.652 22.186-15.619 30.588-16.9 17.235-34.457 38.376-61.174 33.19-4.772-1.193-5.75-3.254-10.413-3.254-5.74-6.894-1.026-14.681 5.206-18.873 7.85.215 12.36 4.138 20.175.651 6.556-2.901 10.901-8.565 15.62-13.667 4.064-4.674 7.058-9.597 8.46-15.619-8.685-22.785-29.922-36.513-39.048-59.222-11.772-9.243-34.794-10.77-50.762-13.667-14.556 5.059-44.396-9.979-55.318-.65-8.2 10.198-8.933 25.046-10.412 37.746-.328 16.622 2.342 34.438-5.857 49.46 2.894 18.234-33.565 27.111-37.746 10.413.043-7.236 9.246-7.195 14.317-9.111 9.374-5.832 4.815-20.252 4.556-29.937-1.248-14.044-3.28-28.485-6.508-42.302-12.613 10.15-27.512 26.022-33.19 41.651-4.258 13.84-17.991 21.937-28.636 30.588-8.507 7.177-12.881 15.396-16.27 25.38-16.025.632-26.632 1.045-41-4.555-3.528-5.645 2.28-13.106 7.16-15.62 7.723-.01 13 .192 19.523-4.555 10.466-14.884 16.805-32.925 24.73-49.46 5.693-13.962 12.349-27.429 18.873-41 2.976-27.553-37.176-30.89-43.603-54.016-3.398-9.233-6.425-19.362-12.365-27.333-10.63.922-20.693 6.838-30.587 11.063-8.865 2.997-16.35-3.198-21.477-9.762-11.266-12.104-16.41-30.5-16.27-46.857-.657-9.946 4.385-20.769 5.858-29.285 0-3.61-3.665-6.851-4.556-10.413-4.241-6.179-8.095-13.133-13.016-18.873-2.517-10.19 39.766 8.212 43.603 10.413 6.938 2.684 13.973 5.084 21.477 5.206 7.533-.28 14.865-2.999 21.476-6.508 4.726-4.654 9.64-8.2 15.619-11.064 15.76 2.179 11.703 19.758 9.11 31.239z" fill-rule="evenodd" stroke="#7d7d7d"/>
    <path d="M177.929 185.482c-2.834 3.074-5.925 8.015-5.983 13.805.958 5.513 4.132 10.329 3.222 16.106" stroke="#7d7d7d"/>
    <path d="M248.716 204.342c-4.088 13.292-14.282 24.29-24.07 34.022-.26.242-.328.613-.492.92m43.229-17.471c-8.935 1.928-17.632-2.324-26.527-.92" stroke="#000" stroke-width="1.033" stroke-linecap="round"/>
    <path d="M368.504 210.071c-3.587 5.988.44 19.129 2.301 25.77.204.815.773 1.546.92 1.841" stroke="#000"/>
    <path d="M496.433 170.678c-11.546 28.914-36.295 49.14-51.784 75.528" stroke="#000" stroke-width="1.059"/>
    <path d="M213.84 324.345c-.8 1.6 1.025-4.168 2.76-4.602 1.22-.305 2.558-.18 3.682-.46M219.361 328.486c.733-.183 1.973-3.984 5.062-4.602.452-.09.92 0 1.38 0M359.141 339.185c2.018-.403 1.841-3.681 2.761-5.522.576-1.151 4.25-1.407 5.983-1.84M366.044 345.053c2.56-.64 2.49-4.86 4.602-6.443 1.554-1.165 3.465-2.362 5.062-2.761.333-.083.613.307.92.46M511.806 331.247c.15-.037 1.566-3.497 4.142-4.141 1.349-.338 2.722-.46 4.141-.46M514.567 335.159c1.609-.402 2.39-3.682 6.443-3.682.485 0 .92.307 1.38.46M106.275 332.874c2.396 0 2.908-3.828 4.602-5.522 1.586-1.585 5.226-.92 7.363-.92M118.672 336.286c2.18 0 2.6-3.52 4.142-5.062 1.628-1.628 3.698-1.38 5.982-1.38M119.137 140.519c5.388-1.678 10.344-4.511 15.186-7.363M148.891 76.958c-.192-3.99-.171-7.41 1.38-11.044" stroke="#000"/>
</svg>
